Coordinates
version=1
nRows=21
nColumns=38
inDegrees=no

Units are S.I. units (second, meters, Newtons, ...)
If the header above contains a line with 'inDegrees', this indicates whether rotational values are in degrees (yes) or radians (no).

endheader
time	pelvis_tilt	pelvis_list	pelvis_rotation	pelvis_tx	pelvis_ty	pelvis_tz	hip_flexion_r	hip_adduction_r	hip_rotation_r	knee_angle_r	ankle_angle_r	subtalar_angle_r	mtp_angle_r	hip_flexion_l	hip_adduction_l	hip_rotation_l	knee_angle_l	ankle_angle_l	subtalar_angle_l	mtp_angle_l	lumbar_extension	lumbar_bending	lumbar_rotation	arm_flex_r	arm_add_r	arm_rot_r	elbow_flex_r	pro_sup_r	wrist_flex_r	wrist_dev_r	arm_flex_l	arm_add_l	arm_rot_l	elbow_flex_l	pro_sup_l	wrist_flex_l	wrist_dev_l
0	-3.04999	1.52283	-1.51649	0.668182	-0.147604	0.942942	-0.14604	-0.120065	-0.26869	0	-0.0525808	0	0	-0.129254	-0.0957701	-0.314406	0	-0.050187	0	0	-0.114835	0.00193985	0.148861	0.0451733	-0.247405	0.704724	0.499999	1.04041	0	0	0.00255323	-0.286585	0.639729	0.725188	0.925403	0	0
0.01	-2.99345	1.51864	-1.5769	0.667513	-0.146895	0.943181	-0.151585	-0.125165	-0.265469	0	-0.0515345	0	0	-0.136498	-0.091599	-0.307577	0	-0.0457868	0	0	-0.11731	0.000262467	0.151904	0.0427751	-0.249533	0.704162	0.501298	1.04195	0	0	0.000421162	-0.284466	0.638847	0.725012	0.924401	0	0
0.02	-2.99594	1.51943	-1.57446	0.667528	-0.147333	0.94318	-0.150395	-0.125062	-0.264719	0	-0.0512458	0	0	-0.135159	-0.0917229	-0.308312	0	-0.0450904	0	0	-0.117571	0.000138001	0.151394	0.0435967	-0.249268	0.704286	0.500844	1.04292	0	0	0.0014595	-0.284414	0.638965	0.724819	0.923399	0	0
0.03	-3.05003	1.5225	-1.51802	0.668168	-0.147623	0.942924	-0.146281	-0.120459	-0.266437	0	-0.0524986	0	0	-0.130051	-0.0954579	-0.315532	0	-0.0500061	0	0	-0.114925	0.00155282	0.148558	0.0450023	-0.246313	0.704496	0.49816	1.04357	0	0	0.00233761	-0.286434	0.638946	0.724964	0.922607	0	0
0.04	-2.99656	1.51892	-1.57467	0.667536	-0.147432	0.943239	-0.150708	-0.125212	-0.264124	0	-0.0516797	0	0	-0.135888	-0.0915697	-0.30854	0	-0.0453189	0	0	-0.118185	-0.000172587	0.151382	0.0433303	-0.24908	0.704833	0.500707	1.04472	0	0	0.00174829	-0.284388	0.638655	0.72483	0.922111	0	0
0.05	-2.9959	1.5182	-1.57602	0.667512	-0.14697	0.943201	-0.151554	-0.125397	-0.264351	0	-0.0516588	0	0	-0.137154	-0.0913942	-0.308336	0	-0.0459452	0	0	-0.117885	-0.000273049	0.151525	0.0424944	-0.248725	0.704641	0.500104	1.04578	0	0	0.000959933	-0.284303	0.638291	0.724412	0.921799	0	0
0.06	-2.9976	1.51794	-1.57487	0.667532	-0.147014	0.943226	-0.151708	-0.125419	-0.263882	0	-0.0516101	0	0	-0.137516	-0.0914365	-0.30879	0	-0.0457816	0	0	-0.118221	-0.00043062	0.15167	0.0424075	-0.248404	0.704357	0.499552	1.04684	0	0	0.00106451	-0.2844	0.63824	0.724525	0.921556	0	0
0.07	-2.99844	1.51791	-1.57464	0.66756	-0.147017	0.943235	-0.151548	-0.125458	-0.263469	0	-0.0516638	0	0	-0.137649	-0.0914282	-0.309284	0	-0.0456051	0	0	-0.118284	-0.000677395	0.151936	0.0421276	-0.248051	0.703828	0.499004	1.04793	0	0	0.00113968	-0.284544	0.638319	0.724737	0.921444	0	0
0.08	-2.99941	1.51793	-1.57421	0.667583	-0.147021	0.943243	-0.151362	-0.1255	-0.263032	0	-0.0517183	0	0	-0.137686	-0.0914008	-0.309828	0	-0.0453797	0	0	-0.118272	-0.000864106	0.152101	0.0418086	-0.247701	0.703108	0.498474	1.04926	0	0	0.00117892	-0.284573	0.638194	0.72486	0.921325	0	0
0.09	-3.00283	1.51832	-1.571	0.667638	-0.147501	0.943307	-0.15058	-0.12529	-0.262327	0	-0.0518105	0	0	-0.136901	-0.091627	-0.310204	0	-0.0448924	0	0	-0.118967	-0.00105905	0.152012	0.042178	-0.247372	0.701877	0.498351	1.05094	0	0	0.00209531	-0.284579	0.637929	0.725067	0.921307	0	0
0.1	-3.00368	1.51769	-1.57092	0.667659	-0.147033	0.94325	-0.151311	-0.125372	-0.262415	0	-0.0518691	0	0	-0.138056	-0.0915611	-0.310235	0	-0.0453667	0	0	-0.118664	-0.00112547	0.152385	0.0409734	-0.246982	0.700112	0.498059	1.053	0	0	0.0012649	-0.28447	0.637406	0.724924	0.921455	0	0
0.11	-3.00637	1.51813	-1.56828	0.667696	-0.147464	0.943263	-0.150442	-0.125193	-0.261862	0	-0.0517731	0	0	-0.137031	-0.0917279	-0.310744	0	-0.0447062	0	0	-0.119518	-0.00139318	0.152219	0.041427	-0.246725	0.69838	0.498	1.05584	0	0	0.00235148	-0.284462	0.637083	0.725296	0.921818	0	0
0.12	-3.00873	1.51793	-1.56634	0.667727	-0.147487	0.943266	-0.150535	-0.125102	-0.261605	0	-0.0518773	0	0	-0.137307	-0.0918077	-0.310976	0	-0.0445253	0	0	-0.119816	-0.00153432	0.152295	0.0408866	-0.246384	0.695976	0.497869	1.0598	0	0	0.00233086	-0.284367	0.636425	0.725393	0.922426	0	0
0.13	-3.00911	1.51719	-1.56671	0.66775	-0.147093	0.943252	-0.151466	-0.125223	-0.261796	0	-0.0516792	0	0	-0.138675	-0.0916921	-0.311162	0	-0.0449202	0	0	-0.119621	-0.00165533	0.152629	0.0395045	-0.245856	0.692627	0.497483	1.06473	0	0	0.00138846	-0.28413	0.635441	0.725132	0.923183	0	0
0.14	-3.0095	1.51756	-1.5664	0.667771	-0.147531	0.943285	-0.15068	-0.125177	-0.261232	0	-0.0512646	0	0	-0.137789	-0.0917209	-0.311991	0	-0.0442965	0	0	-0.120586	-0.00209388	0.152476	0.0397564	-0.245245	0.688581	0.497256	1.07093	0	0	0.00246136	-0.284005	0.634582	0.725253	0.924383	0	0
0.15	-3.01166	1.51777	-1.56444	0.667807	-0.147615	0.943295	-0.15035	-0.125119	-0.26125	0	-0.0512049	0	0	-0.137568	-0.0918036	-0.312234	0	-0.0439256	0	0	-0.12052	-0.00222913	0.152436	0.0391467	-0.244301	0.683493	0.496261	1.079	0	0	0.00253564	-0.283799	0.633713	0.724979	0.926304	0	0
0.16	-3.0714	1.52056	-1.50236	0.668491	-0.147874	0.943042	-0.146409	-0.120045	-0.262847	0	-0.0526516	0	0	-0.132698	-0.0960442	-0.318859	0	-0.0484819	0	0	-0.118358	-0.000601938	0.149991	0.0399989	-0.240601	0.677151	0.4931	1.08916	0	0	0.00350521	-0.285638	0.633035	0.724909	0.929044	0	0
0.17	-3.01683	1.51709	-1.55997	0.667836	-0.147628	0.943328	-0.150707	-0.124902	-0.26056	0	-0.0520114	0	0	-0.138278	-0.0920779	-0.312553	0	-0.0436774	0	0	-0.121848	-0.00259746	0.153163	0.037457	-0.242024	0.667836	0.494582	1.10231	0	0	0.00326091	-0.283353	0.632407	0.724262	0.933248	0	0
0.18	-3.01827	1.5171	-1.55885	0.667872	-0.147657	0.943345	-0.150567	-0.124843	-0.260367	0	-0.052139	0	0	-0.138287	-0.0921354	-0.312909	0	-0.0437269	0	0	-0.12212	-0.0029444	0.153919	0.0357131	-0.238968	0.650152	0.49204	1.11639	0	0	0.00384139	-0.283058	0.632033	0.723463	0.939363	0	0
0.19	-3.01928	1.51815	-1.55838	0.667928	-0.147241	0.943212	-0.149487	-0.124831	-0.261022	0	-0.0519274	0	0	-0.137576	-0.0921188	-0.313041	0	-0.0438117	0	0	-0.120076	-0.00352555	0.156108	0.0313691	-0.229923	0.60653	0.48243	1.12397	0	0	0.00428676	-0.282406	0.632023	0.721201	0.948244	0	0
0.2	-3.02946	1.53147	-1.54688	0.668121	-0.147439	0.94217	-0.133963	-0.123959	-0.265475	0	-0.0488398	0	0	-0.121184	-0.092723	-0.318214	0	-0.0363507	0	0	-0.106274	-0.00508918	0.159113	0.0288039	-0.198108	0.478474	0.439297	1.09486	0	0	0.00664091	-0.281402	0.630602	0.716898	0.960406	0	0
